# xmcd
#
# Track frame offsets:
#	150
#	15385
#	32482
#	50692
#
# Disc length: 1060 seconds
#
# Revision: 1
# Processed by: cddbd v1.4PL0 Copyright (c) Steve Scherf et al.
# Submitted via: EasyCDDAExtractor 5.0.7
#
DISCID=25042204
DTITLE=Mody - Bodyrock
DYEAR=1900
DGENRE=
TTITLE0=Bodyrock(Radio Edit)
TTITLE1=Bodyrock(Olav Basoski's Da Hot Funk Da Freak Funk Radio Edit 2)
TTITLE2=Bodyrock(Olav Basoski's Da Hot Funk Da Freak Funk Radio Edit 1)
TTITLE3=Bodyrock(Olav Basoski's Da Hot Funk Da Freak Funk Remix)
EXTD=
EXTT0=
EXTT1=
EXTT2=
EXTT3=
PLAYORDER=
